<svg width="38" height="34" viewBox="0 0 38 34" fill="none" xmlns="http://www.w3.org/2000/svg">
<path d="M9.24863 20.3333C9.68682 20.3333 10.1071 20.5089 10.4169 20.8215C10.7268 21.1341 10.9008 21.558 10.9008 22C10.9008 22.442 10.7268 22.866 10.4169 23.1785C10.1071 23.4911 9.68682 23.6667 9.24863 23.6667C8.16377 23.6667 7.08953 23.4511 6.08725 23.0323C5.08497 22.6135 4.17427 21.9997 3.40716 21.2259C1.85791 19.6631 0.987549 17.5435 0.987549 15.3333C0.987549 13.1232 1.85791 11.0036 3.40716 9.44078C4.95642 7.87797 7.05765 7 9.24863 7C10.9008 3.08333 14.7009 0.333332 19.1619 0.333332C24.829 0.333332 29.4717 4.76667 29.9013 10.3833L30.7274 10.3333C32.4802 10.3333 34.1612 11.0357 35.4006 12.286C36.64 13.5362 37.3363 15.2319 37.3363 17C37.3363 18.7681 36.64 20.4638 35.4006 21.714C34.1612 22.9643 32.4802 23.6667 30.7274 23.6667H29.0752C28.637 23.6667 28.2168 23.4911 27.9069 23.1785C27.5971 22.866 27.423 22.442 27.423 22C27.423 21.558 27.5971 21.1341 27.9069 20.8215C28.2168 20.5089 28.637 20.3333 29.0752 20.3333H30.7274C31.6038 20.3333 32.4443 19.9821 33.064 19.357C33.6837 18.7319 34.0319 17.8841 34.0319 17C34.0319 16.1159 33.6837 15.2681 33.064 14.643C32.4443 14.0179 31.6038 13.6667 30.7274 13.6667H27.423V12C27.423 9.78986 26.5526 7.67025 25.0034 6.10744C23.4541 4.54464 21.3529 3.66667 19.1619 3.66667C15.0314 3.66667 11.6443 6.7 11 10.65C10.4547 10.45 9.85995 10.3333 9.24863 10.3333C7.93404 10.3333 6.6733 10.8601 5.74375 11.7978C4.8142 12.7355 4.29198 14.0073 4.29198 15.3333C4.29198 16.6594 4.8142 17.9312 5.74375 18.8689C6.6733 19.8066 7.93404 20.3333 9.24863 20.3333ZM15.8575 27C16.7339 27 17.5744 27.3512 18.1941 27.9763C18.8138 28.6014 19.1619 29.4493 19.1619 30.3333C19.1619 31.2174 18.8138 32.0652 18.1941 32.6904C17.5744 33.3155 16.7339 33.6667 15.8575 33.6667C14.9811 33.6667 14.1406 33.3155 13.5209 32.6904C12.9012 32.0652 12.5531 31.2174 12.5531 30.3333C12.5531 29.4493 12.9012 28.6014 13.5209 27.9763C14.1406 27.3512 14.9811 27 15.8575 27ZM23.2925 23.6667C23.9498 23.6667 24.5801 23.9301 25.0449 24.3989C25.5097 24.8677 25.7708 25.5036 25.7708 26.1667C25.7708 26.8297 25.5097 27.4656 25.0449 27.9344C24.5801 28.4033 23.9498 28.6667 23.2925 28.6667C22.6352 28.6667 22.0048 28.4033 21.54 27.9344C21.0752 27.4656 20.8141 26.8297 20.8141 26.1667C20.8141 25.5036 21.0752 24.8677 21.54 24.3989C22.0048 23.9301 22.6352 23.6667 23.2925 23.6667ZM16.6836 17C17.3409 17 17.9713 17.2634 18.436 17.7322C18.9008 18.2011 19.1619 18.837 19.1619 19.5C19.1619 20.163 18.9008 20.7989 18.436 21.2678C17.9713 21.7366 17.3409 22 16.6836 22C16.0263 22 15.3959 21.7366 14.9312 21.2678C14.4664 20.7989 14.2053 20.163 14.2053 19.5C14.2053 18.837 14.4664 18.2011 14.9312 17.7322C15.3959 17.2634 16.0263 17 16.6836 17Z" fill="url(#paint0_linear)"/>
<defs>
<linearGradient id="paint0_linear" x1="19.1619" y1="0.333332" x2="19.1619" y2="33.6667" gradientUnits="userSpaceOnUse">
<stop stop-color="#3CD18A"/>
<stop offset="0.0001" stop-color="#3C6FD1"/>
<stop offset="1" stop-color="#7CA9FF"/>
</linearGradient>
</defs>
</svg>
