<svg width="32" height="34" viewBox="0 0 32 34" fill="none" xmlns="http://www.w3.org/2000/svg">
<path d="M1.94396 13.6667C1.50577 13.6667 1.08552 13.4911 0.775671 13.1785C0.46582 12.866 0.291748 12.442 0.291748 12C0.291748 11.558 0.46582 11.1341 0.775671 10.8215C1.08552 10.5089 1.50577 10.3333 1.94396 10.3333H15.1617C16.0381 10.3333 16.8786 9.98214 17.4983 9.35702C18.118 8.7319 18.4661 7.88406 18.4661 7C18.4661 6.11595 18.118 5.2681 17.4983 4.64298C16.8786 4.01786 16.0381 3.66667 15.1617 3.66667C14.253 3.66667 13.4269 4.03333 12.8321 4.65C12.6817 4.81187 12.5 4.9409 12.2982 5.02911C12.0965 5.11732 11.8789 5.16283 11.659 5.16283C11.4391 5.16283 11.2215 5.11732 11.0197 5.02911C10.818 4.9409 10.6363 4.81187 10.4859 4.65C9.84155 4 9.84155 2.93333 10.4859 2.28333C11.692 1.08333 13.3443 0.333334 15.1617 0.333334C16.9145 0.333334 18.5955 1.03571 19.8349 2.28596C21.0743 3.5362 21.7706 5.23189 21.7706 7C21.7706 8.76811 21.0743 10.4638 19.8349 11.714C18.5955 12.9643 16.9145 13.6667 15.1617 13.6667H1.94396ZM26.7272 17C27.1654 17 27.5856 16.8244 27.8955 16.5118C28.2053 16.1993 28.3794 15.7754 28.3794 15.3333C28.3794 14.8913 28.2053 14.4674 27.8955 14.1548C27.5856 13.8423 27.1654 13.6667 26.7272 13.6667C26.2646 13.6667 25.8515 13.85 25.5541 14.15C25.4013 14.3045 25.2197 14.4271 25.0198 14.5107C24.82 14.5944 24.6057 14.6374 24.3893 14.6374C24.1729 14.6374 23.9587 14.5944 23.7588 14.5107C23.5589 14.4271 23.3774 14.3045 23.2245 14.15C22.5967 13.5 22.5967 12.45 23.2245 11.8C24.1167 10.9 25.3559 10.3333 26.7272 10.3333C28.0418 10.3333 29.3025 10.8601 30.2321 11.7978C31.1616 12.7355 31.6838 14.0073 31.6838 15.3333C31.6838 16.6594 31.1616 17.9312 30.2321 18.8689C29.3025 19.8065 28.0418 20.3333 26.7272 20.3333H3.59618C3.15798 20.3333 2.73774 20.1577 2.42789 19.8452C2.11804 19.5326 1.94396 19.1087 1.94396 18.6667C1.94396 18.2246 2.11804 17.8007 2.42789 17.4882C2.73774 17.1756 3.15798 17 3.59618 17H26.7272ZM25.075 27H1.94396C1.50577 27 1.08552 26.8244 0.775671 26.5118C0.46582 26.1993 0.291748 25.7754 0.291748 25.3333C0.291748 24.8913 0.46582 24.4674 0.775671 24.1548C1.08552 23.8423 1.50577 23.6667 1.94396 23.6667H25.075C26.3896 23.6667 27.6503 24.1935 28.5799 25.1311C29.5094 26.0688 30.0316 27.3406 30.0316 28.6667C30.0316 29.9927 29.5094 31.2645 28.5799 32.2022C27.6503 33.1399 26.3896 33.6667 25.075 33.6667C23.7036 33.6667 22.4645 33.1 21.5723 32.2C20.9444 31.55 20.9444 30.5 21.5723 29.85C21.7251 29.6955 21.9067 29.5729 22.1066 29.4893C22.3064 29.4056 22.5207 29.3626 22.7371 29.3626C22.9535 29.3626 23.1678 29.4056 23.3676 29.4893C23.5675 29.5729 23.7491 29.6955 23.9019 29.85C24.1993 30.15 24.6124 30.3333 25.075 30.3333C25.5132 30.3333 25.9334 30.1577 26.2433 29.8452C26.5531 29.5326 26.7272 29.1087 26.7272 28.6667C26.7272 28.2246 26.5531 27.8007 26.2433 27.4882C25.9334 27.1756 25.5132 27 25.075 27Z" fill="url(#paint0_linear)"/>
<defs>
<linearGradient id="paint0_linear" x1="15.9878" y1="0.333334" x2="15.9878" y2="33.6667" gradientUnits="userSpaceOnUse">
<stop stop-color="#3CD18A"/>
<stop offset="0.0001" stop-color="#3C6FD1"/>
<stop offset="1" stop-color="#7CA9FF"/>
</linearGradient>
</defs>
</svg>
