<svg width="16" height="14" viewBox="0 0 16 14" fill="none" xmlns="http://www.w3.org/2000/svg">
  <path d="M3.71556 8.33335C3.90041 8.33335 4.07769 8.40358 4.20839 8.52861C4.3391 8.65363 4.41253 8.8232 4.41253 9.00001C4.41253 9.17682 4.3391 9.34639 4.20839 9.47142C4.07769 9.59644 3.90041 9.66668 3.71556 9.66668C3.25792 9.66668 2.80477 9.58046 2.38197 9.41294C1.95917 9.24543 1.575 8.9999 1.2514 8.69037C0.597865 8.06525 0.230713 7.2174 0.230713 6.33334C0.230713 5.44929 0.597865 4.60144 1.2514 3.97632C1.90494 3.3512 2.79132 3.00001 3.71556 3.00001C4.41253 1.43334 6.01556 0.333344 7.89738 0.333344C10.288 0.333344 12.2465 2.10668 12.4277 4.35334L12.7762 4.33334C13.5156 4.33334 14.2247 4.6143 14.7475 5.11439C15.2703 5.61449 15.564 6.29277 15.564 7.00001C15.564 7.70726 15.2703 8.38553 14.7475 8.88563C14.2247 9.38573 13.5156 9.66668 12.7762 9.66668H12.0792C11.8943 9.66668 11.7171 9.59644 11.5864 9.47142C11.4557 9.34639 11.3822 9.17682 11.3822 9.00001C11.3822 8.8232 11.4557 8.65363 11.5864 8.52861C11.7171 8.40358 11.8943 8.33335 12.0792 8.33335H12.7762C13.1459 8.33335 13.5004 8.19287 13.7618 7.94282C14.0232 7.69277 14.1701 7.35363 14.1701 7.00001C14.1701 6.64639 14.0232 6.30725 13.7618 6.0572C13.5004 5.80715 13.1459 5.66668 12.7762 5.66668H11.3822V5.00001C11.3822 4.11596 11.0151 3.26811 10.3615 2.64299C9.708 2.01787 8.82162 1.66668 7.89738 1.66668C6.15495 1.66668 4.72617 2.88001 4.45435 4.46001C4.22435 4.38001 3.97344 4.33334 3.71556 4.33334C3.16102 4.33334 2.62919 4.54406 2.23707 4.91913C1.84494 5.2942 1.62465 5.80291 1.62465 6.33334C1.62465 6.86378 1.84494 7.37249 2.23707 7.74756C2.62919 8.12263 3.16102 8.33335 3.71556 8.33335ZM6.50344 11C6.87313 11 7.22769 11.1405 7.4891 11.3905C7.75052 11.6406 7.89738 11.9797 7.89738 12.3333C7.89738 12.687 7.75052 13.0261 7.4891 13.2762C7.22769 13.5262 6.87313 13.6667 6.50344 13.6667C6.13374 13.6667 5.77919 13.5262 5.51778 13.2762C5.25636 13.0261 5.1095 12.687 5.1095 12.3333C5.1095 11.9797 5.25636 11.6406 5.51778 11.3905C5.77919 11.1405 6.13374 11 6.50344 11ZM9.6398 9.66668C9.91707 9.66668 10.183 9.77204 10.3791 9.95957C10.5751 10.1471 10.6853 10.4015 10.6853 10.6667C10.6853 10.9319 10.5751 11.1862 10.3791 11.3738C10.183 11.5613 9.91707 11.6667 9.6398 11.6667C9.36253 11.6667 9.09661 11.5613 8.90055 11.3738C8.70449 11.1862 8.59435 10.9319 8.59435 10.6667C8.59435 10.4015 8.70449 10.1471 8.90055 9.95957C9.09661 9.77204 9.36253 9.66668 9.6398 9.66668ZM6.85192 7.00001C7.1292 7.00001 7.39511 7.10537 7.59117 7.2929C7.78723 7.48044 7.89738 7.7348 7.89738 8.00001C7.89738 8.26523 7.78723 8.51958 7.59117 8.70712C7.39511 8.89466 7.1292 9.00001 6.85192 9.00001C6.57465 9.00001 6.30874 8.89466 6.11268 8.70712C5.91662 8.51958 5.80647 8.26523 5.80647 8.00001C5.80647 7.7348 5.91662 7.48044 6.11268 7.2929C6.30874 7.10537 6.57465 7.00001 6.85192 7.00001Z" fill="white"/>
</svg>
