<svg width="32" height="32" viewBox="0 0 32 32" fill="none" xmlns="http://www.w3.org/2000/svg">
<path d="M17.3836 2.66666L15.7313 7.55666L14.0791 2.66666C13.99 2.40182 13.9648 2.11937 14.0055 1.84273C14.0462 1.56608 14.1517 1.30321 14.3132 1.07588C14.4747 0.848562 14.6876 0.663337 14.9342 0.53556C15.1808 0.407783 15.4541 0.341133 15.7313 0.341133C16.0086 0.341133 16.2819 0.407783 16.5285 0.53556C16.7751 0.663337 16.988 0.848562 17.1495 1.07588C17.311 1.30321 17.4165 1.56608 17.4572 1.84273C17.4979 2.11937 17.4726 2.40182 17.3836 2.66666ZM2.51362 14.3333L7.36122 16L2.51362 17.6667C2.25107 17.7565 1.97107 17.782 1.69683 17.7409C1.42258 17.6999 1.16198 17.5935 0.936633 17.4305C0.711281 17.2676 0.527662 17.0529 0.400993 16.8041C0.274324 16.5553 0.208252 16.2797 0.208252 16C0.208252 15.7203 0.274324 15.4447 0.400993 15.1959C0.527662 14.9471 0.711281 14.7324 0.936633 14.5694C1.16198 14.4065 1.42258 14.3001 1.69683 14.2591C1.97107 14.218 2.25107 14.2435 2.51362 14.3333ZM14.0791 29.3333L15.7313 24.4433L17.3836 29.3333C17.4726 29.5982 17.4979 29.8806 17.4572 30.1573C17.4165 30.4339 17.311 30.6968 17.1495 30.9241C16.988 31.1514 16.7751 31.3367 16.5285 31.4644C16.2819 31.5922 16.0086 31.6589 15.7313 31.6589C15.4541 31.6589 15.1808 31.5922 14.9342 31.4644C14.6876 31.3367 14.4747 31.1514 14.3132 30.9241C14.1517 30.6968 14.0462 30.4339 14.0055 30.1573C13.9648 29.8806 13.99 29.5982 14.0791 29.3333ZM28.9491 17.6633L24.1015 15.9967L28.9491 14.33C29.2116 14.2401 29.4916 14.2147 29.7659 14.2557C30.0401 14.2968 30.3007 14.4032 30.5261 14.5661C30.7514 14.729 30.935 14.9438 31.0617 15.1926C31.1884 15.4413 31.2544 15.717 31.2544 15.9967C31.2544 16.2763 31.1884 16.552 31.0617 16.8008C30.935 17.0495 30.7514 17.2643 30.5261 17.4272C30.3007 17.5901 30.0401 17.6965 29.7659 17.7376C29.4916 17.7787 29.2116 17.7532 28.9491 17.6633ZM7.55288 5.39333L9.81145 10.0283L5.21664 7.75C4.96694 7.62675 4.75002 7.44515 4.5839 7.22031C4.41779 6.99546 4.30728 6.73386 4.26158 6.45726C4.21587 6.18066 4.23628 5.89704 4.32111 5.63C4.40595 5.36296 4.55275 5.1202 4.74932 4.92191C4.94588 4.72363 5.18653 4.57554 5.45126 4.48997C5.71599 4.40439 5.99714 4.3838 6.27135 4.42991C6.54555 4.47602 6.80488 4.58749 7.02778 4.75506C7.25068 4.92262 7.4307 5.14145 7.55288 5.39333ZM5.21664 24.2483L9.81145 21.97L7.55288 26.605C7.4307 26.8569 7.25068 27.0757 7.02778 27.2433C6.80488 27.4108 6.54555 27.5223 6.27135 27.5684C5.99714 27.6145 5.71599 27.5939 5.45126 27.5084C5.18653 27.4228 4.94588 27.2747 4.74932 27.0764C4.55275 26.8781 4.40595 26.6354 4.32111 26.3683C4.23628 26.1013 4.21587 25.8177 4.26158 25.5411C4.30728 25.2645 4.41779 25.0029 4.5839 24.778C4.75002 24.5532 4.96694 24.3716 5.21664 24.2483ZM23.9082 26.605L21.6496 21.97L26.2444 24.2483C26.4941 24.3716 26.711 24.5532 26.8771 24.778C27.0432 25.0029 27.1538 25.2645 27.1995 25.5411C27.2452 25.8177 27.2248 26.1013 27.1399 26.3683C27.0551 26.6354 26.9083 26.8781 26.7117 27.0764C26.5152 27.2747 26.2745 27.4228 26.0098 27.5084C25.745 27.5939 25.4639 27.6145 25.1897 27.5684C24.9155 27.5223 24.6562 27.4108 24.4333 27.2433C24.2104 27.0757 24.0303 26.8569 23.9082 26.605ZM26.2427 7.74666L21.6463 10.0267L23.9065 5.39C24.0287 5.13811 24.2087 4.91929 24.4316 4.75172C24.6545 4.58416 24.9138 4.47268 25.188 4.42658C25.4622 4.38047 25.7434 4.40106 26.0081 4.48663C26.2729 4.57221 26.5135 4.72029 26.7101 4.91858C26.9066 5.11687 27.0534 5.35962 27.1383 5.62667C27.2231 5.89371 27.2435 6.17732 27.1978 6.45392C27.1521 6.73053 27.0416 6.99213 26.8755 7.21697C26.7094 7.44182 26.4924 7.62341 26.2427 7.74666ZM15.7313 23.5C11.6322 23.5 8.29637 20.135 8.29637 16C8.29637 11.865 11.6322 8.5 15.7313 8.5C19.8305 8.5 23.1663 11.865 23.1663 16C23.1663 20.135 19.8305 23.5 15.7313 23.5ZM15.7313 11.8333C13.4529 11.8333 11.6008 13.7017 11.6008 16C11.6008 18.2983 13.4529 20.1667 15.7313 20.1667C18.0098 20.1667 19.8619 18.2983 19.8619 16C19.8619 13.7017 18.0098 11.8333 15.7313 11.8333Z" fill="url(#paint0_linear)"/>
<defs>
<linearGradient id="paint0_linear" x1="15.7313" y1="0.341133" x2="15.7313" y2="31.6589" gradientUnits="userSpaceOnUse">
<stop stop-color="#3CD18A"/>
<stop offset="0.0001" stop-color="#3C6FD1"/>
<stop offset="1" stop-color="#7CA9FF"/>
</linearGradient>
</defs>
</svg>
