<svg width="21" height="38" viewBox="0 0 21 38" fill="none" xmlns="http://www.w3.org/2000/svg">
<path d="M12.3837 24.4667V13.1667C12.3837 12.7246 12.2097 12.3007 11.8998 11.9882C11.59 11.6756 11.1697 11.5 10.7315 11.5C10.2933 11.5 9.87308 11.6756 9.56322 11.9882C9.25338 12.3007 9.0793 12.7246 9.0793 13.1667V24.4667C8.57988 24.7575 8.1646 25.1751 7.87475 25.6781C7.5849 26.181 7.43057 26.7516 7.42709 27.3333C7.42709 28.2174 7.77523 29.0652 8.39493 29.6904C9.01463 30.3155 9.85513 30.6667 10.7315 30.6667C11.6079 30.6667 12.4484 30.3155 13.0681 29.6904C13.6878 29.0652 14.0359 28.2174 14.0359 27.3333C14.0325 26.7516 13.8781 26.181 13.5883 25.6781C13.2984 25.1751 12.8832 24.7575 12.3837 24.4667ZM18.1665 20.6667V8.16667C18.1665 6.17754 17.3832 4.26989 15.9888 2.86337C14.5945 1.45684 12.7034 0.666666 10.7315 0.666666C8.75964 0.666666 6.86853 1.45684 5.4742 2.86337C4.07987 4.26989 3.29655 6.17754 3.29655 8.16667V20.6667C2.15461 21.972 1.37028 23.5555 1.02114 25.2604C0.671998 26.9653 0.77015 28.7327 1.30588 30.3876C1.84162 32.0425 2.79637 33.5277 4.0757 34.6962C5.35503 35.8647 6.9146 36.6761 8.60016 37.05C9.30035 37.211 10.0139 37.3058 10.7315 37.3333C12.6491 37.3423 14.5282 36.7901 16.1409 35.7436C17.7536 34.697 19.0309 33.2011 19.8178 31.4371C20.6047 29.6731 20.8676 27.7167 20.5745 25.805C20.2814 23.8934 19.4449 22.1085 18.1665 20.6667ZM14.8621 32.45C13.5475 33.6258 11.8237 34.2266 10.0699 34.1204C8.31619 34.0141 6.67611 33.2094 5.51052 31.8833C4.34492 30.5573 3.74928 28.8184 3.85463 27.0493C3.95998 25.2802 4.75769 23.6258 6.07227 22.45C6.22838 22.2956 6.35258 22.1116 6.43766 21.9084C6.52275 21.7053 6.56703 21.4872 6.56793 21.2667V8.16667C6.56793 7.0616 7.00311 6.00179 7.77774 5.22039C8.55237 4.43899 9.60299 4 10.6985 4C11.794 4 12.8446 4.43899 13.6192 5.22039C14.3938 6.00179 14.829 7.0616 14.829 8.16667V21.4C14.8299 21.6205 14.8742 21.8387 14.9593 22.0418C15.0444 22.2449 15.1686 22.429 15.3247 22.5833C16 23.2415 16.5286 24.0372 16.8752 24.9176C17.2217 25.7979 17.3783 26.7426 17.3346 27.6888C17.2908 28.635 17.0476 29.561 16.6213 30.4049C16.195 31.2489 15.5952 31.9915 14.8621 32.5833V32.45Z" fill="url(#paint0_linear)"/>
<defs>
<linearGradient id="paint0_linear" x1="10.7536" y1="0.666666" x2="10.7536" y2="37.3334" gradientUnits="userSpaceOnUse">
<stop stop-color="#3CD18A"/>
<stop offset="0.0001" stop-color="#3C6FD1"/>
<stop offset="1" stop-color="#7CA9FF"/>
</linearGradient>
</defs>
</svg>
