<svg width="15" height="16" viewBox="0 0 15 16" fill="none" xmlns="http://www.w3.org/2000/svg">
  <path d="M8.28379 2.00001L7.53379 4.20051L6.78379 2.00001C6.74335 1.88083 6.7319 1.75373 6.75038 1.62924C6.76885 1.50475 6.81673 1.38645 6.89005 1.28416C6.96336 1.18186 7.06 1.09851 7.17195 1.04101C7.2839 0.983514 7.40794 0.953522 7.53379 0.953522C7.65965 0.953522 7.78369 0.983514 7.89564 1.04101C8.00759 1.09851 8.10423 1.18186 8.17754 1.28416C8.25085 1.38645 8.29873 1.50475 8.31721 1.62924C8.33569 1.75373 8.32423 1.88083 8.28379 2.00001ZM1.53379 7.25001L3.73429 8.00001L1.53379 8.75001C1.41461 8.79045 1.28751 8.8019 1.16302 8.78342C1.03853 8.76495 0.920238 8.71707 0.817943 8.64375C0.715647 8.57044 0.632297 8.47381 0.574797 8.36186C0.517297 8.2499 0.487305 8.12586 0.487305 8.00001C0.487305 7.87415 0.517297 7.75011 0.574797 7.63816C0.632297 7.52621 0.715647 7.42958 0.817943 7.35626C0.920238 7.28295 1.03853 7.23507 1.16302 7.21659C1.28751 7.19811 1.41461 7.20957 1.53379 7.25001ZM6.78379 14L7.53379 11.7995L8.28379 14C8.32423 14.1192 8.33569 14.2463 8.31721 14.3708C8.29873 14.4953 8.25085 14.6136 8.17754 14.7159C8.10423 14.8182 8.00759 14.9015 7.89564 14.959C7.78369 15.0165 7.65965 15.0465 7.53379 15.0465C7.40794 15.0465 7.2839 15.0165 7.17195 14.959C7.06 14.9015 6.96336 14.8182 6.89005 14.7159C6.81673 14.6136 6.76885 14.4953 6.75038 14.3708C6.7319 14.2463 6.74335 14.1192 6.78379 14ZM13.5338 8.74851L11.3333 7.99851L13.5338 7.24851C13.653 7.20807 13.7801 7.19661 13.9046 7.21509C14.0291 7.23357 14.1473 7.28145 14.2496 7.35476C14.3519 7.42808 14.4353 7.52471 14.4928 7.63666C14.5503 7.74861 14.5803 7.87265 14.5803 7.99851C14.5803 8.12436 14.5503 8.2484 14.4928 8.36035C14.4353 8.4723 14.3519 8.56894 14.2496 8.64225C14.1473 8.71557 14.0291 8.76345 13.9046 8.78193C13.7801 8.8004 13.653 8.78895 13.5338 8.74851ZM3.82129 3.22701L4.84654 5.31276L2.76079 4.28751C2.64745 4.23205 2.54898 4.15033 2.47357 4.04915C2.39816 3.94797 2.348 3.83025 2.32725 3.70578C2.30651 3.58131 2.31577 3.45368 2.35428 3.33351C2.39279 3.21334 2.45943 3.1041 2.54866 3.01487C2.63788 2.92564 2.74713 2.85901 2.86729 2.8205C2.98746 2.78199 3.11509 2.77272 3.23956 2.79347C3.36403 2.81422 3.48175 2.86438 3.58293 2.93979C3.68411 3.01519 3.76583 3.11366 3.82129 3.22701ZM2.76079 11.7118L4.84654 10.6865L3.82129 12.7723C3.76583 12.8856 3.68411 12.9841 3.58293 13.0595C3.48175 13.1349 3.36403 13.185 3.23956 13.2058C3.11509 13.2265 2.98746 13.2173 2.86729 13.1788C2.74713 13.1403 2.63788 13.0736 2.54866 12.9844C2.45943 12.8952 2.39279 12.7859 2.35428 12.6658C2.31577 12.5456 2.30651 12.418 2.32725 12.2935C2.348 12.169 2.39816 12.0513 2.47357 11.9501C2.54898 11.8489 2.64745 11.7672 2.76079 11.7118ZM11.2455 12.7723L10.2203 10.6865L12.306 11.7118C12.4194 11.7672 12.5179 11.8489 12.5933 11.9501C12.6687 12.0513 12.7188 12.169 12.7396 12.2935C12.7603 12.418 12.7511 12.5456 12.7126 12.6658C12.674 12.7859 12.6074 12.8952 12.5182 12.9844C12.429 13.0736 12.3197 13.1403 12.1995 13.1788C12.0794 13.2173 11.9517 13.2265 11.8273 13.2058C11.7028 13.185 11.5851 13.1349 11.4839 13.0595C11.3827 12.9841 11.301 12.8856 11.2455 12.7723ZM12.3053 4.28601L10.2188 5.31201L11.2448 3.22551C11.3003 3.11216 11.382 3.01369 11.4832 2.93829C11.5843 2.86288 11.7021 2.81272 11.8265 2.79197C11.951 2.77122 12.0786 2.78049 12.1988 2.819C12.319 2.85751 12.4282 2.92414 12.5174 3.01337C12.6067 3.1026 12.6733 3.21184 12.7118 3.33201C12.7503 3.45218 12.7596 3.57981 12.7388 3.70428C12.7181 3.82875 12.6679 3.94647 12.5925 4.04765C12.5171 4.14883 12.4186 4.23055 12.3053 4.28601ZM7.53379 11.375C5.67304 11.375 4.15879 9.86076 4.15879 8.00001C4.15879 6.13926 5.67304 4.62501 7.53379 4.62501C9.39454 4.62501 10.9088 6.13926 10.9088 8.00001C10.9088 9.86076 9.39454 11.375 7.53379 11.375ZM7.53379 6.12501C6.49954 6.12501 5.65879 6.96576 5.65879 8.00001C5.65879 9.03426 6.49954 9.87501 7.53379 9.87501C8.56804 9.87501 9.40879 9.03426 9.40879 8.00001C9.40879 6.96576 8.56804 6.12501 7.53379 6.12501Z" fill="white"/>
</svg>
