<svg width="12" height="12" viewBox="0 0 12 12" fill="none" xmlns="http://www.w3.org/2000/svg">
  <path d="M0.867025 4.83332C0.712315 4.83332 0.563942 4.77187 0.454546 4.66247C0.34515 4.55307 0.283691 4.4047 0.283691 4.24999C0.283691 4.09528 0.34515 3.94691 0.454546 3.83751C0.563942 3.72812 0.712315 3.66666 0.867025 3.66666H5.53369C5.84311 3.66666 6.13986 3.54374 6.35865 3.32495C6.57744 3.10616 6.70036 2.80941 6.70036 2.49999C6.70036 2.19057 6.57744 1.89382 6.35865 1.67503C6.13986 1.45624 5.84311 1.33332 5.53369 1.33332C5.21286 1.33332 4.92119 1.46166 4.71119 1.67749C4.6581 1.73414 4.59396 1.7793 4.52272 1.81018C4.45148 1.84105 4.37467 1.85698 4.29703 1.85698C4.21938 1.85698 4.14257 1.84105 4.07133 1.81018C4.00009 1.7793 3.93595 1.73414 3.88286 1.67749C3.65536 1.44999 3.65536 1.07666 3.88286 0.849157C4.30869 0.429157 4.89202 0.166656 5.53369 0.166656C6.15253 0.166656 6.74602 0.412489 7.18361 0.850074C7.62119 1.28766 7.86703 1.88115 7.86703 2.49999C7.86703 3.11883 7.62119 3.71232 7.18361 4.14991C6.74602 4.58749 6.15253 4.83332 5.53369 4.83332H0.867025ZM9.61703 5.99999C9.77174 5.99999 9.92011 5.93853 10.0295 5.82914C10.1389 5.71974 10.2004 5.57137 10.2004 5.41666C10.2004 5.26195 10.1389 5.11357 10.0295 5.00418C9.92011 4.89478 9.77174 4.83332 9.61703 4.83332C9.45369 4.83332 9.30786 4.89749 9.20286 5.00249C9.14889 5.05657 9.08479 5.09947 9.01422 5.12874C8.94366 5.15801 8.86801 5.17308 8.79161 5.17308C8.71521 5.17308 8.63956 5.15801 8.56899 5.12874C8.49843 5.09947 8.43432 5.05657 8.38036 5.00249C8.15869 4.77499 8.15869 4.40749 8.38036 4.17999C8.69536 3.86499 9.13286 3.66666 9.61703 3.66666C10.0812 3.66666 10.5263 3.85103 10.8545 4.17922C11.1827 4.50741 11.367 4.95253 11.367 5.41666C11.367 5.88079 11.1827 6.32591 10.8545 6.65409C10.5263 6.98228 10.0812 7.16666 9.61703 7.16666H1.45036C1.29565 7.16666 1.14728 7.1052 1.03788 6.9958C0.928483 6.88641 0.867025 6.73803 0.867025 6.58332C0.867025 6.42861 0.928483 6.28024 1.03788 6.17084C1.14728 6.06145 1.29565 5.99999 1.45036 5.99999H9.61703ZM9.03369 9.49999H0.867025C0.712315 9.49999 0.563942 9.43853 0.454546 9.32914C0.34515 9.21974 0.283691 9.07137 0.283691 8.91666C0.283691 8.76195 0.34515 8.61357 0.454546 8.50418C0.563942 8.39478 0.712315 8.33332 0.867025 8.33332H9.03369C9.49782 8.33332 9.94294 8.5177 10.2711 8.84589C10.5993 9.17408 10.7837 9.61919 10.7837 10.0833C10.7837 10.5475 10.5993 10.9926 10.2711 11.3208C9.94294 11.6489 9.49782 11.8333 9.03369 11.8333C8.54953 11.8333 8.11203 11.635 7.79703 11.32C7.57536 11.0925 7.57536 10.725 7.79703 10.4975C7.85099 10.4434 7.91509 10.4005 7.98566 10.3712C8.05623 10.342 8.13188 10.3269 8.20827 10.3269C8.28467 10.3269 8.36032 10.342 8.43089 10.3712C8.50146 10.4005 8.56556 10.4434 8.61953 10.4975C8.72453 10.6025 8.87036 10.6667 9.03369 10.6667C9.1884 10.6667 9.33677 10.6052 9.44617 10.4958C9.55557 10.3864 9.61703 10.238 9.61703 10.0833C9.61703 9.92861 9.55557 9.78024 9.44617 9.67084C9.33677 9.56145 9.1884 9.49999 9.03369 9.49999Z" fill="white"/>
</svg>
