<svg width="14" height="20" viewBox="0 0 14 20" fill="none" xmlns="http://www.w3.org/2000/svg">
  <path d="M7 -7.62939e-06C3.13 -7.62939e-06 0 3.12999 0 6.99999C0 11.17 4.42 16.92 6.24 19.11C6.64 19.59 7.37 19.59 7.77 19.11C9.58 16.92 14 11.17 14 6.99999C14 3.12999 10.87 -7.62939e-06 7 -7.62939e-06ZM7 9.49999C6.33696 9.49999 5.70107 9.2366 5.23223 8.76776C4.76339 8.29892 4.5 7.66303 4.5 6.99999C4.5 6.33695 4.76339 5.70107 5.23223 5.23223C5.70107 4.76338 6.33696 4.49999 7 4.49999C7.66304 4.49999 8.29892 4.76338 8.76777 5.23223C9.23661 5.70107 9.5 6.33695 9.5 6.99999C9.5 7.66303 9.23661 8.29892 8.76777 8.76776C8.29892 9.2366 7.66304 9.49999 7 9.49999Z" fill="#363B64"/>
</svg>
