<svg width="19" height="23" viewBox="0 0 19 23" fill="none" xmlns="http://www.w3.org/2000/svg">
<path d="M15 0.5C15.55 0.5 16 0.95 16 1.5V3.5H18C18.55 3.5 19 3.95 19 4.5C19 5.05 18.55 5.5 18 5.5H16V7.5C16 8.05 15.55 8.5 15 8.5C14.45 8.5 14 8.05 14 7.5V5.5H12C11.45 5.5 11 5.05 11 4.5C11 3.95 11.45 3.5 12 3.5H14V1.5C14 0.95 14.45 0.5 15 0.5ZM8 12.5C9.1 12.5 10 11.6 10 10.5C10 9.4 9.1 8.5 8 8.5C6.9 8.5 6 9.4 6 10.5C6 11.6 6.9 12.5 8 12.5ZM10.72 2.97C10.28 3.33 10 3.88 10 4.5C10 5.6 10.9 6.5 12 6.5H13V7.5C13 8.6 13.9 9.5 15 9.5C15.32 9.5 15.62 9.42 15.89 9.29C15.96 9.74 16 10.21 16 10.7C16 13.88 13.55 17.62 8.66 21.93C8.28 22.26 7.71 22.26 7.33 21.93C2.45 17.62 0 13.88 0 10.7C0 5.72 3.8 2.5 8 2.5C8.94 2.5 9.86 2.66 10.72 2.97Z" fill="#FBF99E"/>
</svg>
