<svg width="14" height="20" viewBox="0 0 14 20" fill="none" xmlns="http://www.w3.org/2000/svg">
  <path d="M7 0.5C3.13 0.5 0 3.63 0 7.5C0 11.67 4.42 17.42 6.24 19.61C6.64 20.09 7.37 20.09 7.77 19.61C9.58 17.42 14 11.67 14 7.5C14 3.63 10.87 0.5 7 0.5ZM7 10C6.33696 10 5.70107 9.73661 5.23223 9.26777C4.76339 8.79893 4.5 8.16304 4.5 7.5C4.5 6.83696 4.76339 6.20107 5.23223 5.73223C5.70107 5.26339 6.33696 5 7 5C7.66304 5 8.29893 5.26339 8.76777 5.73223C9.23661 6.20107 9.5 6.83696 9.5 7.5C9.5 8.16304 9.23661 8.79893 8.76777 9.26777C8.29893 9.73661 7.66304 10 7 10Z" fill="url(#paint0_linear)"/>
  <defs>
    <linearGradient id="paint0_linear" x1="13.8506" y1="0.81695" x2="-17.7861" y2="5.60046" gradientUnits="userSpaceOnUse">
      <stop stop-color="white"/>
      <stop offset="1" stop-color="white" stop-opacity="0"/>
    </linearGradient>
  </defs>
</svg>
